<?xml version="1.0" standalone="no"?>
<!DOCTYPE svg PUBLIC "-//W3C//DTD SVG 20010904//EN"
 "http://www.w3.org/TR/2001/REC-SVG-20010904/DTD/svg10.dtd">
<svg version="1.0" xmlns="http://www.w3.org/2000/svg"
 width="3000.000000pt" height="3000.000000pt" viewBox="0 0 3000.000000 3000.000000"
 preserveAspectRatio="xMidYMid meet">

<g transform="translate(0.000000,3000.000000) scale(0.100000,-0.100000)"
fill="#000000" stroke="none">
<path d="M0 15000 l0 -15000 15000 0 15000 0 0 15000 0 15000 -15000 0 -15000
0 0 -15000z m7815 6890 c875 -95 1419 -373 1769 -904 201 -305 323 -691 378
-1196 7 -70 13 -618 18 -1665 6 -1383 9 -1571 24 -1655 35 -206 96 -371 249
-680 93 -186 102 -210 105 -271 8 -130 -27 -167 -360 -390 -325 -218 -367
-239 -463 -239 -100 0 -159 30 -255 129 -146 150 -237 286 -399 601 l-87 170
-114 -122 c-587 -624 -1288 -928 -2140 -928 -675 0 -1185 194 -1570 597 -274
286 -441 652 -499 1095 -19 138 -24 377 -12 520 43 513 211 897 540 1240 647
673 1642 884 3057 648 190 -32 509 -96 627 -125 l27 -7 0 378 c0 209 -5 429
-10 489 -58 624 -269 968 -695 1134 -384 150 -970 181 -1522 81 -296 -53 -698
-174 -1048 -313 -226 -90 -300 -110 -378 -105 -46 3 -63 10 -87 33 -53 51 -60
97 -60 406 0 367 10 412 112 504 106 96 511 270 893 384 378 113 707 174 1070
201 152 11 698 4 830 -10z m15575 10 c272 -20 569 -69 855 -142 561 -141 852
-308 909 -520 15 -54 17 -104 14 -343 -3 -260 -4 -283 -24 -319 -57 -110 -172
-114 -399 -14 -434 192 -819 282 -1324 308 -450 23 -834 -31 -1109 -156 -289
-132 -441 -355 -459 -674 -16 -300 97 -528 347 -699 115 -79 332 -185 523
-255 84 -31 427 -144 762 -252 336 -107 653 -212 705 -231 474 -177 820 -417
1032 -714 80 -111 184 -310 226 -430 160 -455 126 -1022 -88 -1465 -264 -547
-747 -930 -1435 -1139 -579 -175 -1365 -190 -2113 -40 -405 82 -830 224 -1033
346 -158 94 -212 155 -250 280 -18 60 -20 89 -17 355 3 266 5 292 23 329 30
59 75 85 150 85 79 0 125 -14 341 -106 397 -168 763 -267 1211 -326 230 -30
790 -33 978 -5 414 62 725 208 895 420 202 252 233 639 75 924 -46 81 -163
201 -255 261 -215 140 -407 214 -1165 451 -335 105 -666 212 -735 237 -631
233 -1019 556 -1261 1049 -117 239 -168 449 -176 725 -6 187 5 322 37 473 99
455 426 895 878 1179 495 312 1178 460 1882 408z m-11621 -201 c87 -14 155
-44 191 -86 41 -46 92 -151 122 -248 14 -44 310 -1204 658 -2578 349 -1373
637 -2494 640 -2490 4 5 274 1142 599 2528 326 1386 606 2559 622 2607 58 176
128 241 289 267 85 14 804 14 889 0 172 -27 246 -104 306 -315 19 -69 624
-2634 1157 -4908 l63 -270 12 45 c6 24 307 1186 668 2583 361 1396 669 2573
686 2616 42 111 97 183 162 214 86 42 159 47 617 44 422 -3 425 -3 461 -26 53
-32 73 -81 73 -172 -1 -41 -8 -104 -18 -138 -9 -35 -446 -1442 -972 -3125
-740 -2369 -965 -3080 -996 -3140 -49 -95 -99 -140 -188 -169 -62 -21 -86 -22
-475 -26 -256 -2 -439 1 -489 7 -202 27 -279 116 -350 402 -19 74 -292 1201
-606 2504 -315 1304 -576 2373 -579 2377 -4 5 -274 -1109 -600 -2475 -327
-1365 -602 -2505 -611 -2532 -62 -180 -145 -253 -316 -276 -50 -6 -233 -9
-489 -7 -389 4 -413 5 -475 26 -95 31 -141 75 -195 185 -36 74 -222 679 -960
3114 -503 1661 -925 3056 -936 3100 -26 100 -35 219 -20 265 13 41 54 81 96
96 41 14 878 15 964 1z m13359 -8429 c605 -26 1109 -139 1271 -285 79 -71 111
-210 111 -475 0 -709 -278 -1666 -695 -2396 -197 -343 -476 -698 -719 -914
-160 -142 -211 -170 -308 -170 -43 0 -54 4 -84 34 -31 31 -34 40 -34 91 0 49
15 96 109 333 298 757 486 1318 580 1737 115 514 102 821 -41 951 -92 82 -279
145 -538 181 -190 26 -892 26 -1220 0 -268 -21 -646 -59 -933 -93 -240 -28
-317 -30 -357 -9 -66 34 -86 97 -55 172 36 86 93 135 308 265 578 350 1356
555 2207 581 47 2 105 4 130 5 25 1 145 -3 268 -8z m-21310 -484 c29 -15 112
-61 185 -103 519 -298 1203 -645 1802 -915 3445 -1551 7373 -2243 11085 -1953
2281 179 4614 726 6700 1572 157 64 319 130 360 146 66 27 88 31 175 31 89 1
107 -2 161 -27 168 -78 242 -256 170 -412 -36 -80 -111 -152 -281 -274 -1565
-1119 -3629 -1970 -5860 -2416 -1404 -281 -2741 -386 -4125 -324 -3048 135
-5956 1059 -8475 2693 -585 379 -1089 752 -1640 1212 -341 284 -520 446 -551
499 -66 113 -35 237 71 287 57 27 152 20 223 -16z"/>
<path d="M7005 18010 c-509 -52 -838 -211 -1037 -504 -148 -217 -213 -528
-177 -854 28 -265 108 -457 252 -608 193 -204 447 -294 827 -294 183 0 317 15
493 55 423 95 698 242 963 516 187 195 282 379 338 659 35 177 46 318 46 612
l0 256 -89 21 c-211 48 -484 92 -761 122 -210 23 -707 34 -855 19z"/>
</g>
</svg>
